<svg width="36" height="36" viewBox="0 0 36 36" fill="none" xmlns="http://www.w3.org/2000/svg">
<path d="M26.7187 27.142H26.4936C26.2282 25.8496 25.7609 24.661 25.0916 23.5763C24.4223 22.4916 23.6088 21.5569 22.651 20.7723C21.6933 19.9876 20.6144 19.376 19.4143 18.9375C18.2142 18.499 16.9564 18.2798 15.6409 18.2798C14.6255 18.2798 13.6446 18.4125 12.6984 18.6779C11.7522 18.9433 10.8694 19.3125 10.0501 19.7857C9.23085 20.2588 8.48656 20.8357 7.81728 21.5166C7.148 22.1974 6.57104 22.9474 6.08639 23.7667C5.60174 24.586 5.22671 25.4688 4.96131 26.415C4.6959 27.3612 4.5632 28.342 4.5632 29.3575H2.34766C2.34766 27.9728 2.54959 26.64 2.95347 25.3591C3.35734 24.0783 3.94008 22.8955 4.70167 21.8108C5.46327 20.7261 6.36333 19.7626 7.40187 18.9202C8.4404 18.0778 9.61741 17.4143 10.9329 16.9297C9.62895 16.0758 8.61349 15.0026 7.88652 13.7102C7.15954 12.4178 6.79029 10.9869 6.77875 9.4176C6.77875 8.19443 7.00953 7.04627 7.4711 5.97312C7.93268 4.89997 8.56157 3.95951 9.35778 3.15176C10.154 2.34401 11.0944 1.70935 12.1791 1.24778C13.2638 0.786206 14.4178 0.55542 15.6409 0.55542C16.8641 0.55542 18.0123 0.786206 19.0854 1.24778C20.1586 1.70935 21.099 2.33824 21.9068 3.13445C22.7145 3.93066 23.3492 4.87112 23.8107 5.95581C24.2723 7.0405 24.5031 8.19443 24.5031 9.4176C24.5031 10.1792 24.4108 10.9235 24.2262 11.6505C24.0415 12.3774 23.7646 13.064 23.3953 13.7102C23.0261 14.3564 22.5934 14.9507 22.0972 15.493C21.601 16.0354 21.0182 16.5143 20.349 16.9297C21.6414 17.4259 22.8299 18.1067 23.9146 18.9721C24.9993 19.8376 25.934 20.853 26.7187 22.0185V27.142ZM8.99429 9.4176C8.99429 10.3407 9.16738 11.2004 9.51356 11.9966C9.85974 12.7928 10.3328 13.4967 10.9329 14.1083C11.5329 14.7199 12.2368 15.1988 13.0446 15.545C13.8523 15.8911 14.7178 16.0642 15.6409 16.0642C16.5525 16.0642 17.4122 15.8911 18.22 15.545C19.0277 15.1988 19.7316 14.7257 20.3316 14.1256C20.9317 13.5256 21.4106 12.8217 21.7683 12.0139C22.126 11.2062 22.2991 10.3407 22.2876 9.4176C22.2876 8.506 22.1145 7.64632 21.7683 6.83857C21.4221 6.03082 20.949 5.32692 20.349 4.72688C19.7489 4.12683 19.0392 3.64795 18.22 3.29023C17.4007 2.93252 16.541 2.75943 15.6409 2.77096C14.7178 2.77096 13.8581 2.94405 13.0619 3.29023C12.2657 3.63641 11.5618 4.10952 10.9502 4.70957C10.3386 5.30961 9.85974 6.01928 9.51356 6.83857C9.16738 7.65786 8.99429 8.51753 8.99429 9.4176ZM31.1497 29.3575H35.5808V31.573H31.1497V36.0041H28.9342V31.573H24.5031V29.3575H28.9342V24.9264H31.1497V29.3575Z" fill="#8529CE"/>
</svg>
