<?xml version="1.0" standalone="no"?>
<!DOCTYPE svg PUBLIC "-//W3C//DTD SVG 20010904//EN"
 "http://www.w3.org/TR/2001/REC-SVG-20010904/DTD/svg10.dtd">
<svg version="1.0" xmlns="http://www.w3.org/2000/svg"
 width="942.000000pt" height="900.000000pt" viewBox="0 0 942.000000 900.000000"
 preserveAspectRatio="xMidYMid meet">

<g transform="translate(0.000000,900.000000) scale(0.100000,-0.100000)"
fill="#000000" stroke="none">
<path d="M4295 8994 c-556 -39 -980 -131 -1435 -311 -455 -180 -843 -411
-1243 -740 -135 -111 -467 -449 -583 -593 -566 -703 -889 -1480 -991 -2382
-24 -213 -24 -703 0 -916 107 -948 468 -1781 1080 -2487 123 -142 324 -341
407 -402 35 -26 86 -75 113 -108 27 -33 53 -59 58 -57 6 1 38 -19 72 -46 503
-396 1179 -705 1825 -837 344 -69 519 -86 997 -92 431 -6 663 4 918 38 755
101 1469 388 2078 838 53 39 101 71 106 71 5 0 20 12 34 26 13 14 44 39 69 55
25 17 45 34 45 39 0 5 61 64 135 133 690 632 1172 1502 1354 2444 60 306 70
437 70 843 0 406 -10 535 -70 843 -227 1180 -913 2215 -1912 2886 -516 347
-1131 592 -1747 696 -293 49 -411 57 -885 60 -245 1 -467 1 -495 -1z m1135
-138 c853 -110 1590 -421 2237 -941 353 -284 645 -604 897 -985 146 -220 200
-313 305 -531 217 -450 344 -897 407 -1434 25 -209 25 -699 1 -910 -95 -823
-375 -1531 -862 -2180 -158 -210 -391 -464 -582 -632 l-70 -63 -69 61 c-198
175 -506 325 -864 422 -52 15 -198 49 -325 77 -187 42 -248 60 -324 96 -289
136 -498 356 -577 606 l-18 58 115 117 c128 132 214 239 313 389 114 176 244
440 305 626 12 37 50 108 87 163 81 122 116 191 154 305 72 213 54 402 -50
528 -22 27 -30 47 -30 77 0 213 -100 595 -220 839 -110 225 -226 383 -415 564
-593 571 -1465 625 -2116 131 -428 -325 -715 -853 -778 -1435 l-10 -92 -51
-51 c-214 -214 -151 -600 162 -988 36 -44 69 -92 73 -105 19 -59 122 -284 177
-383 116 -213 245 -389 406 -557 l84 -87 -12 -38 c-60 -186 -170 -345 -319
-463 -182 -143 -292 -193 -586 -265 -126 -30 -284 -72 -350 -92 -335 -99 -646
-257 -823 -418 l-62 -57 -85 78 c-710 644 -1208 1561 -1359 2504 -47 291 -51
349 -51 730 1 389 6 461 61 770 326 1850 1857 3312 3724 3555 235 30 316 33
845 30 418 -2 557 -6 655 -19z m-470 -2492 c377 -66 740 -308 985 -659 200
-286 318 -632 343 -1002 l8 -122 38 -42 c58 -63 78 -118 78 -208 -1 -131 -57
-273 -176 -446 -45 -66 -72 -120 -101 -200 -136 -389 -353 -732 -628 -990 -58
-55 -110 -111 -115 -125 -20 -54 48 -267 128 -401 130 -214 316 -379 565 -499
115 -56 121 -57 360 -111 377 -84 596 -151 780 -239 106 -51 280 -163 349
-225 38 -34 39 -36 20 -50 -257 -190 -465 -321 -697 -439 -383 -194 -807 -334
-1232 -406 -305 -51 -367 -55 -965 -55 -518 0 -566 2 -725 23 -688 91 -1289
312 -1855 680 -125 81 -330 231 -330 241 1 10 105 92 182 143 223 149 466 241
945 359 293 72 398 115 584 239 100 67 285 260 343 357 85 145 158 355 142
416 -3 14 -47 66 -97 114 -228 220 -433 535 -565 868 -37 94 -58 132 -96 175
-71 79 -181 249 -217 333 -45 110 -67 232 -53 303 15 75 43 117 108 165 60 44
59 40 74 203 78 847 672 1524 1418 1615 95 12 289 4 402 -15z"/>
</g>
</svg>
