<svg width="226" height="216" viewBox="0 0 226 216" fill="none" xmlns="http://www.w3.org/2000/svg">
<rect x="1.86717" y="1.41795" width="222.618" height="212.692" rx="106.346" fill="#F3ECFF"/>
<rect x="1.86717" y="1.41795" width="222.618" height="212.692" rx="106.346" stroke="#8529CE" stroke-width="2.8359"/>
<g clip-path="url(#clip0_854_10276)">
<path d="M32.5111 204.107C33.0962 204.259 33.7179 204.175 34.2413 203.873C34.7647 203.57 35.1477 203.074 35.3073 202.491C40.0133 184.952 59.1389 180.406 70.5704 177.686C73.4351 177.006 75.6968 176.467 77.168 175.833C90.1895 170.187 94.434 161.105 95.7042 154.478C95.7797 154.084 95.7498 153.676 95.6174 153.297C95.4851 152.918 95.255 152.581 94.9503 152.319C88.17 146.473 82.4497 137.696 78.8402 127.6C78.7384 127.311 78.5782 127.045 78.3696 126.82C73.5951 121.635 70.8537 116.154 70.8537 111.786C70.8537 109.235 71.8177 107.523 73.988 106.232C74.3131 106.038 74.5847 105.766 74.7785 105.441C74.9724 105.116 75.0822 104.748 75.0982 104.37C76.108 81.1204 92.6841 62.8187 113.016 62.7L113.505 62.7319C133.937 63.0149 150.408 81.7091 150.998 105.287C151.006 105.609 151.083 105.926 151.223 106.216C151.363 106.507 151.563 106.764 151.811 106.971C153.241 108.18 153.908 109.714 153.908 111.795C153.908 115.451 151.957 119.947 148.421 124.447C148.252 124.663 148.122 124.907 148.037 125.168C144.382 136.742 137.821 146.961 130.044 153.214C129.722 153.474 129.477 153.816 129.333 154.204C129.19 154.592 129.155 155.012 129.231 155.418C130.501 162.04 134.746 171.118 147.767 176.773C149.307 177.439 151.697 177.96 154.726 178.612C166.043 181.059 184.981 185.162 189.628 202.491C189.706 202.781 189.84 203.052 190.023 203.29C190.206 203.527 190.434 203.727 190.694 203.876C190.954 204.026 191.241 204.123 191.539 204.162C191.837 204.201 192.139 204.18 192.429 204.103C192.719 204.025 192.99 203.89 193.228 203.708C193.466 203.525 193.665 203.297 193.815 203.037C193.965 202.778 194.062 202.491 194.101 202.194C194.14 201.896 194.12 201.594 194.042 201.305C188.673 181.282 167.217 176.641 155.694 174.149C153.022 173.569 150.714 173.072 149.59 172.579C141.092 168.891 135.856 163.273 134.006 155.852C141.896 149.083 148.498 138.641 152.272 126.929C156.279 121.726 158.482 116.368 158.482 111.791C158.482 108.737 157.495 106.191 155.539 104.201C154.452 78.6239 136.18 58.4828 113.505 58.1588L112.824 58.1497C90.5596 58.2683 72.2107 77.8799 70.607 103.014C67.7468 105.113 66.2939 108.057 66.2939 111.795C66.2939 117.194 69.3505 123.653 74.7007 129.577C78.397 139.722 84.1265 148.636 90.9479 154.875C89.1066 162.323 83.8661 167.96 75.3495 171.652C74.2484 172.132 72.0553 172.656 69.515 173.259C57.9053 176.016 36.3033 181.15 30.8937 201.314C30.7375 201.899 30.8201 202.521 31.1234 203.045C31.4267 203.569 31.9259 203.951 32.5111 204.107Z" fill="#8529CE"/>
</g>
<defs>
<clipPath id="clip0_854_10276">
<rect width="164.482" height="146.049" fill="white" transform="translate(30.2305 58.1357)"/>
</clipPath>
</defs>
</svg>
