<svg width="96" height="96" viewBox="0 0 96 96" fill="none" xmlns="http://www.w3.org/2000/svg">
<path d="M66.7319 29.7297C66.4538 29.4541 66.1233 29.2354 65.7596 29.0862C65.3959 28.9371 65.0059 28.8603 64.6122 28.8603C64.2184 28.8603 63.8284 28.9371 63.4647 29.0862C63.101 29.2354 62.7706 29.4541 62.4924 29.7297L47.7894 44.2384L33.0863 29.7C32.8079 29.4247 32.4775 29.2064 32.1138 29.0574C31.75 28.9085 31.3602 28.8318 30.9665 28.8318C30.5729 28.8318 30.183 28.9085 29.8193 29.0574C29.4556 29.2064 29.1252 29.4247 28.8468 29.7C28.5684 29.9752 28.3476 30.302 28.1969 30.6617C28.0463 31.0213 27.9687 31.4068 27.9688 31.796C27.9688 32.1853 28.0463 32.5707 28.1969 32.9304C28.3476 33.29 28.5684 33.6168 28.8468 33.892L43.5498 48.4305L28.8468 62.9689C28.5684 63.2441 28.3476 63.5709 28.1969 63.9305C28.0463 64.2902 27.9688 64.6756 27.9688 65.0649C27.9687 65.4542 28.0463 65.8396 28.1969 66.1993C28.3476 66.5589 28.5684 66.8857 28.8468 67.1609C29.1252 67.4362 29.4556 67.6545 29.8193 67.8035C30.183 67.9525 30.5729 68.0291 30.9665 68.0291C31.3602 68.0291 31.75 67.9525 32.1138 67.8035C32.4775 67.6545 32.8079 67.4362 33.0863 67.1609L47.7894 52.6225L62.4924 67.1609C62.7708 67.4362 63.1012 67.6545 63.465 67.8035C63.8287 67.9525 64.2185 68.0291 64.6122 68.0291C65.0058 68.0291 65.3957 67.9525 65.7594 67.8035C66.1231 67.6545 66.4535 67.4362 66.7319 67.1609C67.0103 66.8857 67.2311 66.5589 67.3818 66.1993C67.5324 65.8396 67.61 65.4542 67.61 65.0649C67.61 64.6756 67.5324 64.2902 67.3818 63.9305C67.2311 63.5709 67.0103 63.2441 66.7319 62.9689L52.0289 48.4305L66.7319 33.892C67.8745 32.7623 67.8745 30.8595 66.7319 29.7297Z" fill="#BF3659"/>
<circle cx="47.5694" cy="48.4305" r="45.7856" stroke="#BF3659" stroke-width="3.56771"/>
</svg>
